<?xml version="1.0" encoding="UTF-8"?>
<svg xmlns="http://www.w3.org/2000/svg" xml:space="preserve" width="2400px" height="950px" version="1.0" shape-rendering="geometricPrecision" text-rendering="geometricPrecision" image-rendering="optimizeQuality" fill-rule="evenodd" clip-rule="evenodd"
viewBox="0 0 2400 950"
 xmlns:xlink="http://www.w3.org/1999/xlink">
 <g id="Warstwa_x0020_1">
  <g id="_1111260048">
   <path fill="#0B5BAE" d="M401 210c-16,10 -36,5 -46,-11 -10,-16 -5,-37 11,-47 33,-19 68,-32 105,-32 37,-1 76,10 116,36 15,10 20,31 10,47 -11,16 -32,20 -48,10 -27,-18 -53,-26 -77,-26 -23,1 -47,9 -71,23zm-135 174c9,9 14,21 14,34 0,0 0,1 0,2l160 255 0 -428c0,-18 15,-34 34,-34 19,0 34,16 34,34l0 504c7,8 11,19 11,31 0,13 -5,25 -13,33 -8,9 -20,14 -33,14 -13,0 -25,-5 -34,-14 -8,-8 -14,-20 -14,-33 0,-1 0,-1 0,-2l-160 -256 0 223c9,8 14,20 14,33 0,13 -5,24 -14,33 -8,9 -20,14 -33,14 -13,0 -25,-5 -33,-14 -9,-9 -14,-20 -14,-33 0,-13 5,-24 13,-32l0 -300c-8,-8 -12,-18 -12,-30 0,-13 5,-25 14,-34 8,-8 20,-13 33,-13 13,0 25,5 33,13l0 0zm119 -127c19,1 33,17 33,36 -1,18 -17,33 -36,32l-2 0c0,0 0,0 0,0 -112,-6 -187,37 -234,91 -48,54 -68,118 -70,155l0 0c0,0 0,0 0,1 -2,44 4,107 39,167 24,41 63,81 124,111 34,16 71,23 107,24 42,0 82,-8 115,-22 2,-1 3,-1 5,-2 63,-28 113,-82 140,-146 27,-64 30,-140 0,-212 0,-1 -1,-3 -2,-5 -8,-18 -19,-36 -30,-52 -13,-18 -26,-33 -37,-41 -15,-12 -17,-34 -5,-48 12,-14 33,-17 48,-5 15,12 32,31 49,54 14,20 27,42 37,65 1,1 2,3 3,6 38,90 33,184 0,264 -57,135 -181,213 -324,211 -46,0 -93,-10 -136,-30 -75,-36 -122,-86 -153,-138 -43,-73 -50,-151 -48,-205 1,0 1,0 1,0l0 -1c2,-47 27,-129 86,-196 59,-67 152,-121 288,-114 1,0 1,0 1,0l1 0 0 0zm-41 -140c-16,10 -37,4 -47,-12 -9,-16 -4,-36 12,-46 51,-31 103,-49 160,-50 56,-2 114,15 175,56 16,10 20,31 10,47 -10,15 -31,20 -47,9 -49,-32 -95,-45 -138,-45 -42,1 -84,16 -125,41l0 0z"/>
   <path fill="white" d="M233 389c16,0 29,13 29,29 0,16 -13,29 -29,29 -16,0 -29,-13 -29,-29 0,-16 13,-29 29,-29zm-1 362c16,0 29,13 29,29 0,16 -13,29 -29,29 -16,0 -29,-13 -29,-29 0,-16 13,-29 29,-29zm241 2c16,0 29,13 29,29 0,16 -13,29 -29,29 -16,0 -29,-13 -29,-29 0,-16 13,-29 29,-29z"/>
  </g>
  <g id="_1111259504">
   <path fill="#0B5BAE" fill-rule="nonzero" d="M990 447c0,19 -3,37 -8,52 -5,16 -12,30 -22,41 -11,11 -23,20 -39,26 -15,6 -33,9 -54,9 -19,0 -37,-2 -51,-8 -15,-5 -27,-13 -37,-24 -10,-10 -17,-23 -21,-39 -5,-15 -7,-33 -7,-52 0,-19 2,-37 7,-52 5,-16 13,-30 23,-41 10,-11 23,-20 38,-26 16,-6 33,-9 54,-9 20,0 37,2 52,8 15,5 27,13 36,24 10,10 17,23 22,38 5,16 7,33 7,53l0 0zm1402 115c0,2 0,4 -2,5 -2,2 -4,3 -8,3 -4,1 -9,1 -16,1 -7,0 -13,0 -16,-1 -4,0 -6,-1 -8,-3 -1,-1 -2,-3 -2,-5l0 -18c-9,10 -19,18 -31,23 -12,6 -25,8 -39,8 -12,0 -23,-1 -33,-4 -10,-3 -19,-8 -26,-14 -7,-6 -13,-14 -17,-23 -4,-9 -6,-19 -6,-31 0,-13 3,-24 8,-34 5,-10 13,-18 23,-24 10,-6 22,-11 37,-14 15,-3 33,-4 53,-4l22 0 0 -14c0,-7 -1,-13 -3,-18 -1,-5 -3,-10 -7,-13 -3,-4 -7,-6 -13,-8 -5,-2 -12,-3 -20,-3 -10,0 -20,2 -28,4 -8,2 -16,5 -22,8 -6,3 -12,5 -16,7 -4,3 -7,4 -10,4 -2,0 -4,-1 -5,-2 -1,-1 -3,-3 -4,-5 0,-2 -1,-5 -2,-8 0,-3 0,-7 0,-10 0,-6 0,-10 1,-13 1,-3 2,-5 5,-8 2,-2 6,-5 12,-8 6,-3 13,-5 20,-8 8,-2 17,-4 26,-6 9,-2 19,-2 29,-2 17,0 32,1 45,5 12,3 22,8 30,15 8,8 14,17 18,28 4,11 5,24 5,40l0 150 0 0zm-61 -96l-25 0c-10,0 -18,1 -26,3 -7,1 -13,3 -17,6 -5,3 -8,7 -10,11 -2,4 -3,9 -3,15 0,9 3,17 9,22 6,5 14,8 24,8 9,0 17,-2 25,-7 7,-4 15,-11 23,-20l0 -38 0 0zm-169 73c0,7 -1,13 -2,17 -1,4 -2,7 -3,8 -2,2 -4,3 -7,5 -3,1 -6,2 -10,3 -4,1 -9,1 -13,2 -5,0 -9,1 -14,1 -13,0 -23,-2 -33,-5 -9,-3 -16,-8 -22,-15 -6,-6 -11,-15 -14,-25 -2,-10 -4,-21 -4,-35l0 -115 -27 0c-3,0 -5,-2 -7,-5 -2,-4 -2,-11 -2,-20 0,-5 0,-9 0,-12 1,-4 1,-6 2,-8 1,-2 2,-4 3,-4 1,-1 3,-2 5,-2l26 0 0 -49c0,-2 1,-4 1,-5 1,-1 3,-2 5,-3 3,-1 6,-2 10,-2 4,-1 9,-1 15,-1 7,0 12,0 16,1 4,0 7,1 9,2 3,1 4,2 5,3 1,1 2,3 2,5l0 49 49 0c1,0 3,1 4,2 1,0 2,2 3,4 1,2 1,4 2,8 0,3 1,7 1,12 0,9 -1,16 -3,20 -2,3 -4,5 -7,5l-49 0 0 105c0,13 2,22 6,28 4,6 10,9 20,9 4,0 7,0 9,-1 3,-1 5,-1 7,-2 2,-1 4,-1 6,-2 1,-1 2,-1 4,-1 1,0 1,0 2,1 1,1 2,2 3,4 0,1 0,4 1,7 0,3 1,6 1,11l0 0zm-171 -180c0,6 -1,11 -1,14 0,4 -1,7 -1,9 -1,3 -2,4 -3,5 -1,1 -3,1 -4,1 -2,0 -3,0 -5,-1 -1,0 -3,-1 -5,-2 -2,0 -5,-1 -7,-1 -3,-1 -6,-1 -9,-1 -3,0 -7,0 -10,2 -4,1 -7,3 -11,6 -4,3 -8,7 -12,12 -4,5 -8,12 -13,19l0 139c0,2 0,3 -1,5 -1,1 -3,2 -5,3 -3,1 -6,1 -10,2 -4,0 -9,0 -15,0 -7,0 -12,0 -16,0 -4,-1 -7,-1 -9,-2 -3,-1 -4,-2 -5,-3 -1,-2 -2,-3 -2,-5l0 -223c0,-2 1,-3 1,-5 1,-1 3,-2 5,-3 2,0 5,-1 8,-2 4,0 8,0 13,0 5,0 10,0 13,0 4,1 7,2 9,2 1,1 3,2 4,3 0,2 1,3 1,5l0 28c6,-9 11,-16 16,-21 6,-5 11,-10 15,-13 5,-3 10,-5 14,-7 5,-1 10,-1 14,-1 2,0 5,0 7,0 3,0 5,1 8,1 3,1 5,1 7,2 2,1 3,2 4,3 1,0 2,1 2,2 1,1 1,3 2,4 0,2 0,5 0,8 0,4 1,9 1,15l0 0zm-207 203c0,2 -1,4 -2,5 -2,2 -5,3 -8,3 -4,1 -9,1 -16,1 -8,0 -13,0 -16,-1 -4,0 -6,-1 -8,-3 -1,-1 -2,-3 -2,-5l0 -18c-9,10 -19,18 -31,23 -12,6 -25,8 -39,8 -12,0 -23,-1 -33,-4 -10,-3 -19,-8 -26,-14 -7,-6 -13,-14 -17,-23 -4,-9 -6,-19 -6,-31 0,-13 3,-24 8,-34 5,-10 13,-18 23,-24 10,-6 22,-11 37,-14 15,-3 33,-4 53,-4l21 0 0 -14c0,-7 0,-13 -2,-18 -1,-5 -3,-10 -7,-13 -3,-4 -7,-6 -13,-8 -5,-2 -12,-3 -20,-3 -10,0 -20,2 -28,4 -8,2 -16,5 -22,8 -6,3 -12,5 -16,7 -4,3 -8,4 -10,4 -2,0 -4,-1 -5,-2 -2,-1 -3,-3 -4,-5 -1,-2 -1,-5 -2,-8 0,-3 -1,-7 -1,-10 0,-6 1,-10 2,-13 1,-3 2,-5 4,-8 3,-2 7,-5 13,-8 6,-3 12,-5 20,-8 8,-2 17,-4 26,-6 9,-2 19,-2 29,-2 17,0 32,1 45,5 12,3 22,8 30,15 8,8 14,17 18,28 3,11 5,24 5,40l0 150 0 0zm-62 -96l-24 0c-10,0 -18,1 -26,3 -7,1 -13,3 -17,6 -5,3 -8,7 -10,11 -2,4 -3,9 -3,15 0,9 3,17 9,22 6,5 14,8 24,8 9,0 17,-2 25,-7 7,-4 15,-11 22,-20l0 -38 0 0zm-163 -129c0,2 0,4 -1,7 0,3 -1,7 -2,12l-60 202c-1,3 -2,5 -3,7 -2,1 -4,3 -6,4 -3,1 -7,1 -12,2 -5,0 -12,0 -20,0 -8,0 -15,0 -20,0 -5,-1 -9,-2 -12,-3 -3,-1 -5,-2 -7,-4 -1,-1 -2,-4 -3,-6l-37 -136 -1 -2 0 2 -35 136c0,3 -1,5 -3,7 -1,1 -3,3 -6,4 -3,1 -7,1 -12,2 -5,0 -12,0 -20,0 -9,0 -15,0 -20,0 -5,-1 -9,-2 -12,-3 -3,-1 -5,-2 -7,-4 -1,-1 -2,-4 -3,-6l-59 -202c-1,-5 -2,-9 -3,-12 0,-3 0,-5 0,-7 0,-1 0,-3 1,-4 1,-1 3,-2 5,-3 2,-1 6,-1 10,-2 4,0 9,0 15,0 7,0 12,0 16,0 5,1 8,1 10,2 3,1 4,2 5,3 1,2 2,4 2,6l45 164 0 3 1 -3 41 -164c1,-2 1,-4 2,-6 2,-1 3,-2 5,-3 3,-1 6,-1 10,-2 3,0 8,0 15,0 6,0 11,0 15,0 4,1 7,1 9,2 2,1 4,2 5,3 0,1 1,3 2,5l44 165 1 3 1 -3 42 -164c0,-2 1,-4 2,-6 1,-1 3,-2 5,-3 2,-1 6,-1 10,-2 4,0 9,0 15,0 6,0 11,0 15,0 4,1 7,1 9,2 3,1 4,2 5,3 1,1 1,3 1,4l0 0zm-387 202c0,7 -1,13 -2,17 0,4 -2,7 -3,8 -2,2 -4,3 -7,5 -3,1 -6,2 -10,3 -4,1 -8,1 -13,2 -4,0 -9,1 -14,1 -12,0 -23,-2 -32,-5 -9,-3 -17,-8 -23,-15 -6,-6 -10,-15 -13,-25 -3,-10 -5,-21 -5,-35l0 -115 -26 0c-4,0 -6,-2 -8,-5 -1,-4 -2,-11 -2,-20 0,-5 0,-9 1,-12 0,-4 1,-6 1,-8 1,-2 2,-4 4,-4 1,-1 2,-2 4,-2l26 0 0 -49c0,-2 1,-4 2,-5 1,-1 2,-2 5,-3 2,-1 6,-2 10,-2 4,-1 9,-1 15,-1 6,0 11,0 15,1 4,0 7,1 10,2 2,1 4,2 5,3 1,1 1,3 1,5l0 49 49 0c2,0 3,1 4,2 1,0 3,2 3,4 1,2 2,4 2,8 1,3 1,7 1,12 0,9 -1,16 -3,20 -1,3 -4,5 -7,5l-49 0 0 105c0,13 2,22 6,28 4,6 11,9 21,9 3,0 6,0 9,-1 2,-1 5,-1 7,-2 2,-1 4,-1 5,-2 1,-1 3,-1 4,-1 1,0 2,0 3,1 1,1 1,2 2,4 0,1 1,4 1,7 1,3 1,6 1,11l0 0zm-247 -89c0,-11 -1,-21 -3,-31 -1,-9 -4,-17 -8,-24 -5,-7 -10,-12 -17,-16 -7,-4 -16,-6 -26,-6 -10,0 -18,2 -25,6 -7,3 -13,8 -17,15 -5,6 -8,14 -10,23 -3,10 -4,20 -4,32 0,11 1,21 3,30 2,10 5,18 9,25 4,6 10,12 17,15 7,4 15,6 26,6 9,0 17,-2 24,-5 7,-3 13,-8 18,-15 4,-6 8,-14 10,-24 2,-9 3,-19 3,-31l0 0z"/>
   <path fill="#0B5BAE" fill-rule="nonzero" d="M867 829c0,8 -1,15 -4,21 -3,6 -8,11 -14,15 -5,4 -12,7 -20,9 -8,3 -17,4 -26,4 -6,0 -12,-1 -17,-2 -5,0 -10,-1 -14,-3 -5,-1 -8,-2 -11,-4 -3,-1 -5,-2 -7,-4 -1,-1 -2,-2 -3,-4 0,-2 0,-5 0,-8 0,-3 0,-4 0,-6 0,-1 0,-2 1,-3 0,-1 1,-2 1,-2 1,-1 2,-1 3,-1 1,0 3,1 6,2 2,2 5,4 9,5 4,2 9,4 14,5 5,2 11,3 18,3 5,0 10,-1 14,-2 4,-1 8,-2 11,-4 3,-2 5,-5 7,-8 2,-3 3,-6 3,-11 0,-4 -2,-7 -4,-10 -2,-3 -6,-6 -10,-8 -3,-2 -8,-4 -13,-6 -5,-2 -10,-3 -15,-5 -5,-2 -10,-4 -15,-7 -5,-2 -10,-5 -13,-9 -4,-3 -7,-7 -10,-12 -2,-5 -3,-10 -3,-17 0,-6 1,-12 3,-17 3,-6 7,-10 12,-14 5,-4 11,-8 18,-10 8,-3 17,-4 27,-4 4,0 9,0 13,1 4,1 8,2 12,3 3,1 6,2 9,3 2,1 4,2 6,3 1,1 2,2 2,2 1,1 1,2 1,3 0,0 1,1 1,3 0,1 0,2 0,4 0,2 0,4 0,5 0,2 -1,3 -1,4 -1,0 -1,1 -2,2 0,0 -1,0 -2,0 -1,0 -2,-1 -5,-2 -2,-1 -4,-2 -8,-4 -3,-1 -7,-2 -11,-4 -5,-1 -10,-1 -16,-1 -5,0 -9,0 -13,1 -4,1 -7,3 -10,5 -2,2 -4,4 -6,7 -1,2 -1,5 -1,8 0,5 1,8 3,11 3,3 6,6 10,8 4,2 8,4 13,6 5,2 10,4 15,6 6,2 11,4 16,6 5,2 9,5 13,9 4,3 7,7 10,12 2,4 3,10 3,16l0 0zm436 18c0,2 0,4 0,5 -1,2 -1,3 -1,4 0,1 -1,2 -1,2 -1,1 -2,2 -3,4 -2,1 -4,3 -8,5 -4,2 -8,4 -12,5 -5,2 -10,3 -15,4 -6,1 -11,2 -17,2 -12,0 -22,-2 -32,-6 -9,-3 -16,-8 -23,-15 -6,-7 -10,-16 -14,-26 -3,-10 -5,-21 -5,-34 0,-15 2,-28 6,-38 4,-11 10,-20 17,-27 7,-6 15,-11 24,-15 10,-3 20,-5 31,-5 5,0 10,1 15,2 5,1 9,2 14,3 4,2 7,3 11,5 3,2 5,4 7,5 1,1 2,2 3,3 0,1 1,2 1,3 0,1 1,2 1,4 0,1 0,3 0,5 0,4 -1,7 -2,9 -1,1 -2,2 -4,2 -2,0 -4,-1 -6,-2 -2,-2 -5,-4 -9,-7 -4,-2 -8,-4 -13,-6 -6,-2 -12,-2 -19,-2 -14,0 -26,5 -33,15 -8,10 -12,25 -12,44 0,10 1,19 3,26 2,7 5,13 9,18 4,5 9,9 14,11 6,3 13,4 20,4 7,0 13,-1 18,-3 6,-2 10,-4 14,-7 4,-2 7,-4 10,-6 2,-2 4,-3 6,-3 1,0 1,0 2,0 1,1 1,2 2,3 0,1 0,2 0,4 1,1 1,3 1,5l0 0zm-46 -201c1,-1 2,-2 3,-3 1,-1 2,-1 3,-2 2,0 3,-1 5,-1 3,0 5,0 8,0 3,0 6,0 8,0 2,1 4,1 5,2 1,1 1,2 1,3 0,1 -1,2 -2,3l-33 39c-1,1 -2,2 -3,2 0,1 -1,1 -2,2 -1,0 -3,0 -4,1 -2,0 -4,0 -7,0 -2,0 -4,0 -6,-1 -2,0 -3,0 -3,-1 -1,-1 -1,-1 -1,-2 0,-1 1,-2 1,-3l27 -39 0 0zm-119 142c0,5 -1,8 -4,10 -2,2 -5,3 -8,3l-108 0c0,8 1,15 3,22 1,7 5,13 9,17 4,5 10,9 17,11 6,3 15,4 25,4 8,0 14,0 21,-2 6,-1 11,-2 15,-3 5,-2 9,-3 11,-4 3,-2 6,-2 7,-2 1,0 2,0 2,0 1,1 1,1 2,2 0,1 1,2 1,3 0,2 0,4 0,6 0,1 0,2 0,3 0,1 0,2 -1,3 0,1 0,2 -1,2 0,1 -1,2 -1,2 -1,1 -3,2 -6,3 -4,2 -8,3 -13,4 -5,2 -11,3 -18,4 -7,1 -15,2 -22,2 -14,0 -26,-2 -36,-6 -10,-3 -19,-8 -26,-15 -7,-7 -12,-15 -16,-26 -3,-10 -5,-22 -5,-35 0,-13 2,-25 5,-35 4,-11 9,-19 16,-27 7,-7 16,-12 25,-16 10,-4 21,-6 33,-6 13,0 24,2 33,6 9,4 17,9 23,15 6,7 10,14 13,23 3,8 4,18 4,27l0 5 0 0zm-31 -8c1,-14 -3,-26 -10,-34 -7,-8 -18,-12 -33,-12 -7,0 -14,1 -20,4 -5,2 -10,6 -14,10 -4,4 -7,9 -9,15 -2,5 -3,11 -3,17l89 0 0 0zm-166 90c0,1 0,2 -1,3 0,0 -1,1 -2,1 -1,1 -3,1 -5,1 -2,0 -4,0 -7,0 -3,0 -6,0 -8,0 -2,0 -3,0 -4,-1 -1,0 -2,-1 -3,-1 0,-1 0,-2 0,-3l0 -150c0,-1 0,-2 0,-3 1,0 2,-1 3,-1 1,-1 2,-1 4,-1 2,0 5,-1 8,-1 3,0 5,1 7,1 2,0 4,0 5,1 1,0 2,1 2,1 1,1 1,2 1,3l0 150zm4 -201c0,6 -2,11 -5,13 -2,2 -7,3 -14,3 -7,0 -12,-1 -15,-3 -3,-2 -4,-7 -4,-13 0,-6 1,-11 4,-13 3,-2 8,-4 15,-4 7,0 12,1 15,4 2,2 4,6 4,13l0 0z"/>
   <path fill="#0B5BAE" fill-rule="nonzero" d="M1591 730c0,2 0,4 0,6 0,1 0,3 -1,4 0,1 -1,1 -1,2 -1,0 -2,1 -2,1 -1,0 -3,-1 -4,-1 -1,-1 -3,-1 -5,-2 -2,0 -4,-1 -6,-1 -2,-1 -4,-1 -7,-1 -3,0 -6,1 -9,2 -3,1 -6,3 -9,5 -3,3 -7,6 -10,11 -4,4 -8,9 -12,15l0 99c0,1 0,2 -1,3 0,0 -1,1 -2,1 -1,1 -3,1 -5,1 -2,0 -4,1 -7,1 -3,0 -6,-1 -8,-1 -2,0 -3,0 -4,-1 -2,0 -2,-1 -3,-1 0,-1 0,-2 0,-3l0 -150c0,-1 0,-2 0,-3 0,0 1,-1 2,-1 1,-1 3,-1 5,-1 1,0 4,-1 6,-1 3,0 5,1 7,1 2,0 3,0 4,1 1,0 2,1 2,1 1,1 1,2 1,3l0 22c4,-6 9,-11 13,-15 4,-4 7,-7 11,-9 3,-2 7,-4 11,-5 3,0 7,-1 10,-1 2,0 3,0 5,0 2,1 5,1 7,1 2,1 4,1 6,2 2,0 3,1 4,1 0,1 1,2 1,2 0,1 0,1 1,2 0,1 0,2 0,3 0,2 0,4 0,7l0 0zm741 144l-22 56c-1,2 -3,3 -6,4 -3,1 -7,1 -13,1 -3,0 -6,0 -8,0 -2,0 -3,-1 -5,-1 -1,-1 -1,-2 -1,-3 0,-1 0,-3 1,-4l22 -53c-1,0 -2,-1 -3,-2 -1,-1 -1,-2 -2,-3l-59 -144c-1,-2 -1,-4 -1,-5 0,-2 0,-3 1,-4 1,0 3,-1 5,-1 2,0 5,-1 9,-1 4,0 6,1 9,1 2,0 3,0 5,1 1,0 2,1 2,2 1,0 1,2 2,3l47 121 1 0 45 -122c1,-2 2,-3 3,-4 1,0 2,-1 5,-1 2,0 5,-1 8,-1 4,0 7,1 9,1 2,0 4,1 5,1 1,1 1,2 1,4 0,1 0,3 -1,5l-59 149 0 0zm-115 -11c0,2 0,4 -1,5 0,2 0,3 -1,4 0,1 -1,2 -2,2 -1,0 -2,0 -3,0l-101 0c-3,0 -5,0 -7,-2 -1,-1 -2,-4 -2,-8l0 -5c0,-2 0,-3 0,-5 0,-1 1,-2 1,-3 1,-2 1,-3 2,-4 1,-2 2,-3 3,-5l73 -103 -70 0c-2,0 -4,-1 -5,-3 -1,-2 -2,-5 -2,-9 0,-2 0,-4 1,-5 0,-2 0,-3 1,-4 0,-1 1,-2 2,-2 1,-1 2,-1 3,-1l94 0c2,0 3,0 4,1 1,0 2,1 3,1 0,1 1,2 1,3 1,2 1,3 1,5l0 6c0,1 0,3 0,4 -1,1 -1,3 -2,4 0,1 -1,2 -2,4 0,1 -1,3 -3,5l-72 103 77 0c1,0 2,0 3,1 1,0 1,1 2,2 1,1 1,2 1,3 1,2 1,4 1,6l0 0zm-146 -16c0,2 0,4 0,5 0,2 0,3 0,4 -1,1 -1,2 -2,2 0,1 -1,2 -2,4 -2,1 -5,3 -8,5 -4,2 -8,4 -13,5 -4,2 -9,3 -15,4 -5,1 -11,2 -16,2 -12,0 -23,-2 -32,-6 -9,-3 -17,-8 -23,-15 -6,-7 -11,-16 -14,-26 -3,-10 -5,-21 -5,-34 0,-15 2,-28 6,-38 4,-11 9,-20 16,-27 7,-6 15,-11 25,-15 9,-3 19,-5 30,-5 5,0 11,1 15,2 5,1 10,2 14,3 4,2 8,3 11,5 4,2 6,4 7,5 2,1 3,2 3,3 1,1 1,2 2,3 0,1 0,2 0,4 1,1 1,3 1,5 0,4 -1,7 -2,9 -1,1 -2,2 -4,2 -2,0 -4,-1 -6,-2 -3,-2 -6,-4 -9,-7 -4,-2 -9,-4 -14,-6 -5,-2 -11,-2 -18,-2 -15,0 -26,5 -34,15 -7,10 -11,25 -11,44 0,10 1,19 3,26 2,7 5,13 9,18 3,5 8,9 14,11 6,3 12,4 20,4 7,0 13,-1 18,-3 5,-2 10,-4 14,-7 3,-2 7,-4 9,-6 3,-2 5,-3 6,-3 1,0 2,0 3,0 0,1 1,2 1,3 1,1 1,2 1,4 0,1 0,3 0,5l0 0zm-164 -59c0,5 -2,8 -4,10 -2,2 -5,3 -8,3l-108 0c0,8 0,15 2,22 2,7 5,13 9,17 5,5 10,9 17,11 7,3 15,4 25,4 8,0 15,0 21,-2 6,-1 12,-2 16,-3 5,-2 8,-3 11,-4 3,-2 5,-2 7,-2 1,0 1,0 2,0 1,1 1,1 2,2 0,1 0,2 0,3 1,2 1,4 1,6 0,1 0,2 -1,3 0,1 0,2 0,3 0,1 -1,2 -1,2 0,1 -1,2 -2,2 0,1 -2,2 -6,3 -3,2 -7,3 -12,4 -6,2 -12,3 -19,4 -7,1 -14,2 -22,2 -13,0 -25,-2 -35,-6 -11,-3 -19,-8 -26,-15 -7,-7 -13,-15 -16,-26 -4,-10 -5,-22 -5,-35 0,-13 1,-25 5,-35 4,-11 9,-19 16,-27 7,-7 15,-12 25,-16 10,-4 21,-6 33,-6 13,0 24,2 33,6 9,4 17,9 23,15 5,7 10,14 12,23 3,8 5,18 5,27l0 5 0 0zm-31 -8c0,-14 -3,-26 -10,-34 -8,-8 -19,-12 -33,-12 -8,0 -14,1 -20,4 -6,2 -10,6 -14,10 -4,4 -7,9 -9,15 -2,5 -3,11 -3,17l89 0 0 0zm-145 83c0,2 0,4 -1,5 0,2 0,3 -1,4 0,1 -1,2 -2,2 -1,0 -2,0 -3,0l-101 0c-3,0 -5,0 -7,-2 -1,-1 -2,-4 -2,-8l0 -5c0,-2 0,-3 0,-5 0,-1 1,-2 1,-3 1,-2 1,-3 2,-4 1,-2 2,-3 3,-5l73 -103 -70 0c-2,0 -4,-1 -5,-3 -1,-2 -2,-5 -2,-9 0,-2 0,-4 1,-5 0,-2 0,-3 1,-4 0,-1 1,-2 2,-2 1,-1 2,-1 3,-1l94 0c2,0 3,0 4,1 1,0 2,1 3,1 0,1 1,2 1,3 1,2 1,3 1,5l0 6c0,1 0,3 0,4 -1,1 -1,3 -1,4 -1,1 -2,2 -2,4 -1,1 -2,3 -4,5l-72 103 77 0c1,0 2,0 3,1 1,0 1,1 2,2 1,1 1,2 1,3 1,2 1,4 1,6l0 0z"/>
  </g>
 </g>
</svg>

