<?xml version="1.0" encoding="UTF-8"?>
<svg xmlns="http://www.w3.org/2000/svg" xml:space="preserve" width="2400px" height="950px" version="1.0" shape-rendering="geometricPrecision" text-rendering="geometricPrecision" image-rendering="optimizeQuality" fill-rule="evenodd" clip-rule="evenodd"
viewBox="0 0 2400 950"
 xmlns:xlink="http://www.w3.org/1999/xlink">
 <g id="Warstwa_x0020_1">
  <path fill="#0B5BAE" d="M344 117c-16,10 -37,5 -47,-11 -10,-16 -4,-37 12,-47 50,-31 103,-49 159,-50 56,-1 114,16 176,56 15,10 20,31 9,47 -10,16 -31,20 -47,10 -49,-33 -94,-46 -137,-45 -43,0 -84,15 -125,40zm128 636c16,0 29,13 29,29 0,16 -13,29 -29,29 -16,0 -29,-13 -29,-29 0,-16 13,-29 29,-29zm-240 -2c16,0 29,12 29,28 0,16 -13,29 -29,29 -16,0 -29,-13 -29,-29 0,-16 13,-28 29,-28zm1 -362c16,0 29,13 29,29 0,16 -13,29 -29,29 -16,0 -29,-13 -29,-29 0,-16 13,-29 29,-29zm152 -132c19,1 33,17 32,36 -1,19 -17,33 -36,32l-1 0c0,0 0,0 0,0 -112,-6 -187,37 -234,91 -48,54 -68,118 -70,155l0 0c0,0 0,0 0,1 -2,44 4,107 38,167 25,41 64,81 124,111 34,16 71,23 107,23 42,1 83,-8 116,-21 1,-1 3,-2 5,-2 63,-28 113,-82 140,-146 26,-65 30,-140 0,-212 -1,-1 -1,-3 -2,-5 -8,-18 -19,-36 -31,-52 -13,-18 -26,-32 -37,-41 -14,-12 -16,-34 -4,-48 11,-15 33,-17 47,-5 15,12 33,32 49,54 14,20 28,42 38,64 1,2 1,4 3,7 37,90 33,184 -1,264 -33,80 -96,147 -175,182 -1,0 -3,1 -6,2 -41,17 -91,28 -142,27 -46,0 -93,-10 -136,-30 -75,-36 -123,-86 -153,-138 -43,-73 -51,-151 -48,-205 0,0 0,0 0,-1l0 0c3,-47 28,-129 87,-196 59,-67 151,-121 288,-114 0,0 0,0 1,0l1 0zm-119 127c9,9 14,21 14,34 0,0 0,1 0,1l160 256 0 -428c0,-18 15,-33 34,-33 18,0 33,15 33,33l0 504c8,8 12,19 12,31 0,13 -5,25 -14,33 -8,9 -20,14 -33,14 -13,0 -25,-5 -33,-14 -9,-8 -14,-20 -14,-33 0,-1 0,-1 0,-2l-160 -256 0 222c8,9 14,21 14,33 0,13 -6,25 -14,34 -9,8 -20,14 -33,14 -13,0 -25,-6 -34,-14 -8,-9 -13,-21 -13,-34 0,-12 4,-23 12,-31l0 -300c-7,-8 -11,-19 -11,-30 0,-13 5,-25 14,-34 8,-8 20,-13 33,-13 13,0 25,5 33,13zm135 -173c-16,9 -37,4 -46,-12 -10,-16 -5,-37 11,-47 33,-19 68,-31 105,-32 37,-1 75,10 115,36 16,10 20,31 10,47 -10,16 -31,20 -47,10 -28,-18 -53,-26 -77,-25 -24,0 -48,9 -71,23z"/>
  <g id="_914330960">
   <path fill="#0B5BAE" fill-rule="nonzero" d="M2388 561c0,2 -1,4 -2,5 -2,1 -5,2 -8,3 -4,1 -9,1 -16,1 -7,0 -13,0 -16,-1 -4,-1 -6,-2 -8,-3 -1,-1 -2,-3 -2,-5l0 -18c-9,10 -19,17 -31,23 -12,5 -25,8 -39,8 -12,0 -23,-1 -33,-5 -10,-3 -19,-7 -26,-13 -7,-6 -13,-14 -17,-23 -4,-9 -6,-19 -6,-31 0,-13 3,-25 8,-34 5,-10 13,-18 23,-24 10,-6 22,-11 37,-14 15,-3 33,-5 53,-5l21 0 0 -13c0,-7 0,-13 -2,-18 -1,-6 -3,-10 -7,-14 -3,-3 -7,-6 -13,-7 -5,-2 -12,-3 -20,-3 -10,0 -20,1 -28,4 -8,2 -16,5 -22,7 -6,3 -12,6 -16,8 -4,2 -8,4 -10,4 -2,0 -4,-1 -5,-2 -1,-1 -3,-3 -4,-5 0,-2 -1,-5 -2,-8 0,-3 0,-7 0,-11 0,-5 0,-9 1,-12 1,-3 2,-6 5,-8 2,-2 6,-5 12,-8 6,-3 13,-6 20,-8 8,-3 17,-5 26,-6 9,-2 19,-3 29,-3 17,0 32,2 45,5 12,4 22,9 30,16 8,7 14,16 18,28 3,11 5,24 5,39l0 151 0 0zm-1402 -115c0,19 -2,36 -7,52 -5,16 -13,29 -23,41 -10,11 -23,20 -39,26 -15,6 -33,9 -53,9 -20,0 -37,-3 -52,-8 -15,-6 -27,-14 -37,-24 -9,-11 -17,-24 -21,-39 -5,-15 -7,-33 -7,-53 0,-19 2,-36 7,-52 6,-16 13,-29 23,-40 11,-12 23,-20 39,-26 15,-7 33,-10 53,-10 20,0 38,3 52,8 15,6 27,14 37,24 9,11 16,24 21,39 5,15 7,33 7,53l0 0zm-65 2c0,-11 -1,-21 -2,-30 -2,-9 -5,-17 -9,-24 -4,-7 -10,-12 -17,-16 -7,-4 -16,-6 -26,-6 -9,0 -18,2 -25,5 -7,4 -12,9 -17,15 -4,7 -8,15 -10,24 -2,9 -3,20 -3,32 0,11 1,21 2,30 2,9 5,17 9,24 4,7 10,12 17,16 7,4 16,6 26,6 9,0 18,-2 25,-5 7,-4 12,-9 17,-15 4,-7 8,-15 10,-24 2,-9 3,-20 3,-32zm247 90c0,7 0,13 -1,17 -1,4 -2,6 -4,8 -1,2 -4,3 -7,4 -2,1 -6,3 -10,3 -4,1 -8,2 -13,3 -4,0 -9,0 -14,0 -12,0 -23,-1 -32,-4 -9,-4 -17,-8 -23,-15 -6,-7 -10,-15 -13,-25 -3,-10 -4,-22 -4,-35l0 -115 -27 0c-3,0 -6,-2 -7,-6 -2,-4 -3,-10 -3,-19 0,-5 0,-9 1,-13 0,-3 1,-6 2,-8 0,-1 1,-3 3,-4 1,-1 2,-1 4,-1l27 0 0 -50c0,-1 0,-3 1,-4 1,-2 3,-3 5,-4 2,-1 6,-1 10,-2 4,0 9,0 15,0 6,0 11,0 15,0 4,1 8,1 10,2 2,1 4,2 5,4 1,1 1,3 1,4l0 50 49 0c2,0 3,0 4,1 2,1 3,3 4,4 0,2 1,5 1,8 1,4 1,8 1,13 0,9 -1,15 -2,19 -2,4 -5,6 -8,6l-49 0 0 105c0,12 2,21 6,27 4,6 11,10 21,10 3,0 6,-1 9,-1 2,-1 5,-2 7,-2 2,-1 4,-2 5,-2 2,-1 3,-1 4,-1 1,0 2,0 3,1 1,0 2,1 2,3 1,2 1,4 1,7 1,3 1,7 1,12l0 0zm387 -202c0,2 0,4 0,7 -1,2 -2,6 -3,11l-60 202c-1,3 -2,5 -3,7 -1,2 -3,3 -6,4 -3,1 -7,2 -12,2 -5,1 -12,1 -20,1 -8,0 -15,0 -20,-1 -5,0 -9,-1 -12,-2 -3,-1 -5,-2 -6,-4 -2,-2 -3,-4 -3,-7l-38 -135 0 -3 -1 3 -34 135c-1,3 -2,5 -3,7 -2,2 -4,3 -7,4 -3,1 -7,2 -12,2 -5,1 -12,1 -20,1 -8,0 -15,0 -20,-1 -5,0 -9,-1 -12,-2 -3,-1 -5,-2 -7,-4 -1,-2 -2,-4 -3,-7l-59 -202c-1,-4 -2,-8 -3,-11 0,-3 0,-5 0,-7 0,-2 0,-3 1,-4 1,-2 3,-3 5,-3 3,-1 6,-2 10,-2 4,0 9,0 15,0 7,0 12,0 17,0 4,0 7,1 9,2 3,1 4,2 5,3 1,2 2,3 2,5l45 164 0 3 1 -3 41 -164c1,-2 2,-3 3,-5 1,-1 2,-2 5,-3 2,-1 5,-2 9,-2 4,0 9,0 15,0 6,0 11,0 15,0 4,1 7,1 9,2 2,1 4,2 5,3 1,1 1,3 2,4l44 166 1 2 1 -3 42 -164c1,-2 1,-3 2,-5 1,-1 3,-2 5,-3 3,-1 6,-2 10,-2 4,0 9,0 15,0 6,0 11,0 15,0 4,0 7,1 9,2 3,0 4,1 5,3 1,1 1,2 1,4l0 0zm225 225c0,2 -1,4 -2,5 -2,1 -4,2 -8,3 -4,1 -9,1 -16,1 -7,0 -13,0 -16,-1 -4,-1 -6,-2 -8,-3 -1,-1 -2,-3 -2,-5l0 -18c-9,10 -19,17 -31,23 -12,5 -25,8 -39,8 -12,0 -23,-1 -33,-5 -10,-3 -19,-7 -26,-13 -7,-6 -13,-14 -17,-23 -4,-9 -6,-19 -6,-31 0,-13 3,-25 8,-34 5,-10 13,-18 23,-24 10,-6 22,-11 37,-14 15,-3 33,-5 53,-5l21 0 0 -13c0,-7 0,-13 -2,-18 -1,-6 -3,-10 -7,-14 -3,-3 -7,-6 -13,-7 -5,-2 -12,-3 -20,-3 -10,0 -20,1 -28,4 -8,2 -16,5 -22,7 -6,3 -12,6 -16,8 -4,2 -7,4 -10,4 -2,0 -4,-1 -5,-2 -1,-1 -3,-3 -4,-5 0,-2 -1,-5 -2,-8 0,-3 0,-7 0,-11 0,-5 0,-9 1,-12 1,-3 2,-6 5,-8 2,-2 6,-5 12,-8 6,-3 13,-6 20,-8 8,-3 17,-5 26,-6 9,-2 19,-3 29,-3 17,0 32,2 45,5 12,4 22,9 30,16 8,7 14,16 18,28 3,11 5,24 5,39l0 151 0 0zm-62 -96l-24 0c-10,0 -18,1 -26,2 -7,2 -13,4 -17,7 -5,3 -8,7 -10,11 -2,4 -3,9 -3,15 0,9 3,16 9,22 6,5 14,8 24,8 9,0 17,-3 25,-7 7,-5 15,-11 22,-20l0 -38 0 0zm269 -108c0,6 -1,11 -1,15 0,4 -1,7 -1,9 -1,2 -2,4 -3,5 -1,0 -3,1 -4,1 -2,0 -3,0 -5,-1 -1,-1 -3,-1 -5,-2 -2,-1 -5,-1 -7,-2 -3,0 -5,-1 -8,-1 -4,0 -7,1 -11,2 -4,2 -7,4 -11,7 -4,3 -8,7 -12,12 -4,5 -8,11 -13,19l0 139c0,2 0,3 -1,4 -1,1 -3,3 -5,3 -3,1 -6,2 -10,2 -4,1 -9,1 -15,1 -7,0 -12,0 -16,-1 -4,0 -7,-1 -9,-2 -3,0 -4,-2 -5,-3 -1,-1 -2,-2 -2,-4l0 -223c0,-2 1,-4 1,-5 1,-1 3,-2 5,-3 2,-1 5,-1 8,-2 4,0 8,0 13,0 6,0 10,0 13,0 4,1 7,1 9,2 1,1 3,2 4,3 1,1 1,3 1,5l0 27c6,-8 11,-15 16,-20 6,-6 11,-10 15,-13 5,-3 10,-6 14,-7 5,-1 10,-2 14,-2 2,0 5,0 7,1 3,0 5,0 8,1 3,1 5,1 7,2 2,1 4,1 4,2 1,1 2,2 2,3 1,1 1,2 2,4 0,2 0,5 0,8 0,4 1,8 1,14l0 0zm171 181c0,7 -1,13 -2,17 -1,4 -2,6 -3,8 -2,2 -4,3 -7,4 -3,1 -6,3 -10,3 -4,1 -9,2 -13,3 -5,0 -9,0 -14,0 -13,0 -23,-1 -33,-4 -9,-4 -16,-8 -22,-15 -6,-7 -11,-15 -14,-25 -2,-10 -4,-22 -4,-35l0 -115 -27 0c-3,0 -5,-2 -7,-6 -2,-4 -2,-10 -2,-19 0,-5 0,-9 0,-13 1,-3 1,-6 2,-8 1,-1 2,-3 3,-4 1,-1 3,-1 5,-1l26 0 0 -50c0,-1 1,-3 1,-4 1,-2 3,-3 6,-4 2,-1 5,-1 9,-2 4,0 9,0 15,0 7,0 12,0 16,0 4,1 7,1 9,2 3,1 4,2 5,4 1,1 2,3 2,4l0 50 49 0c1,0 3,0 4,1 1,1 2,3 3,4 1,2 1,5 2,8 0,4 1,8 1,13 0,9 -1,15 -3,19 -2,4 -4,6 -7,6l-49 0 0 105c0,12 2,21 6,27 4,6 10,10 20,10 4,0 7,-1 9,-1 3,-1 5,-2 7,-2 2,-1 4,-2 6,-2 1,-1 2,-1 4,-1 1,0 1,0 2,1 1,0 2,1 3,3 0,2 0,4 1,7 0,3 1,7 1,12l0 0zm168 -73l-24 0c-10,0 -18,1 -26,2 -7,2 -13,4 -17,7 -5,3 -8,7 -10,11 -2,4 -3,9 -3,15 0,9 3,16 9,22 6,5 14,8 24,8 9,0 17,-3 25,-7 7,-5 15,-11 22,-20l0 -38 0 0z"/>
   <path fill="#0B5BAE" fill-rule="nonzero" d="M1296 840c0,3 0,5 0,7 0,2 -1,4 -1,6 0,1 0,2 -1,3 0,1 -1,2 -3,3 -1,2 -4,3 -7,5 -3,2 -7,4 -12,6 -4,1 -9,3 -14,3 -5,1 -11,2 -16,2 -12,0 -23,-2 -33,-6 -9,-4 -17,-9 -23,-17 -7,-7 -12,-16 -15,-27 -3,-11 -5,-23 -5,-37 0,-16 2,-29 6,-41 4,-12 10,-21 17,-29 7,-7 15,-13 25,-17 10,-3 21,-5 32,-5 5,0 10,0 14,1 5,1 9,2 13,3 4,2 8,3 11,5 3,2 5,4 6,5 2,1 3,2 3,3 1,1 1,2 1,4 1,1 1,3 1,5 0,2 0,4 0,7 0,7 0,12 -1,15 -2,3 -3,4 -5,4 -2,0 -4,-1 -6,-2 -3,-2 -5,-4 -8,-6 -4,-2 -7,-4 -11,-5 -5,-2 -10,-3 -16,-3 -11,0 -20,5 -27,14 -6,9 -9,22 -9,39 0,9 1,16 2,23 2,6 4,12 7,16 3,5 7,8 12,10 4,2 10,3 16,3 6,0 11,-1 16,-2 4,-2 8,-4 11,-7 4,-2 6,-4 9,-6 2,-2 4,-2 5,-2 2,0 2,0 3,0 1,1 1,2 2,4 0,1 1,3 1,6 0,2 0,6 0,10zm-428 -20c0,9 -1,17 -5,24 -3,7 -8,13 -14,17 -6,5 -14,8 -22,11 -9,2 -18,3 -28,3 -6,0 -11,0 -17,-1 -5,-1 -10,-2 -14,-4 -4,-1 -8,-2 -11,-4 -3,-1 -5,-3 -6,-4 -1,-1 -2,-3 -3,-6 -1,-2 -1,-6 -1,-12 0,-3 0,-6 0,-8 0,-2 1,-4 1,-5 1,-1 1,-2 2,-2 1,-1 2,-1 3,-1 1,0 3,1 5,2 3,2 6,3 10,5 4,2 8,4 13,5 5,2 11,2 18,2 4,0 7,0 10,-1 3,-1 6,-2 9,-3 2,-2 4,-4 5,-6 1,-3 2,-5 2,-9 0,-3 -2,-6 -4,-9 -2,-2 -5,-4 -8,-6 -4,-2 -8,-4 -13,-6 -4,-1 -9,-3 -14,-5 -5,-2 -9,-5 -14,-7 -5,-3 -9,-6 -12,-10 -4,-4 -7,-8 -9,-14 -2,-5 -3,-11 -3,-19 0,-7 1,-14 4,-21 3,-6 7,-12 13,-16 6,-5 12,-8 20,-11 8,-2 17,-3 27,-3 5,0 10,0 15,1 5,0 9,1 13,2 4,1 7,3 9,4 3,1 5,2 6,3 1,1 2,2 2,3 1,1 1,2 1,3 1,1 1,3 1,5 0,1 0,4 0,6 0,4 0,6 0,8 0,2 0,4 -1,5 0,1 -1,2 -1,2 -1,1 -2,1 -3,1 -1,0 -3,-1 -5,-2 -2,-1 -5,-2 -8,-4 -4,-1 -8,-3 -12,-4 -5,-1 -10,-2 -15,-2 -5,0 -8,1 -11,2 -3,0 -5,2 -7,3 -2,2 -4,4 -5,6 -1,2 -1,4 -1,6 0,4 1,7 3,10 3,2 6,4 9,6 4,2 8,4 13,6 5,1 9,3 14,5 5,2 10,4 14,7 5,2 9,6 13,9 4,4 7,9 9,14 2,5 3,12 3,19l0 0zm79 45c0,1 0,2 -1,3 -1,1 -2,2 -4,2 -1,1 -4,1 -7,2 -2,0 -6,0 -10,0 -5,0 -9,0 -11,0 -3,-1 -6,-1 -7,-2 -2,0 -3,-1 -4,-2 -1,-1 -1,-2 -1,-3l0 -159c0,-1 0,-2 1,-3 1,-1 2,-2 4,-2 1,-1 4,-2 7,-2 2,0 6,0 11,0 4,0 8,0 10,0 3,0 6,1 7,2 2,0 3,1 4,2 1,1 1,2 1,3l0 159zm3 -213c0,9 -1,15 -5,19 -4,3 -11,5 -21,5 -10,0 -17,-2 -20,-5 -4,-4 -5,-10 -5,-18 0,-9 1,-16 5,-19 4,-4 11,-5 21,-5 10,0 16,1 20,5 4,3 5,9 5,18zm189 129c0,5 -1,9 -4,12 -2,2 -6,4 -10,4l-97 0c0,7 1,13 3,18 1,6 4,10 7,14 4,4 8,7 14,9 5,2 12,3 20,3 8,0 14,0 20,-2 6,-1 12,-2 16,-3 4,-2 8,-3 11,-4 2,-1 5,-2 7,-2 1,0 2,0 2,1 1,0 2,1 2,2 1,1 1,3 1,5 0,2 0,4 0,7 0,3 0,5 0,7 0,2 0,3 0,5 -1,1 -1,2 -1,3 -1,1 -2,2 -2,2 -1,1 -3,2 -7,4 -3,1 -8,3 -13,4 -5,1 -11,3 -18,4 -7,1 -15,1 -22,1 -15,0 -27,-2 -38,-5 -10,-4 -19,-9 -26,-17 -7,-7 -13,-16 -16,-27 -4,-11 -6,-24 -6,-39 0,-14 2,-27 6,-38 4,-12 9,-21 16,-29 7,-8 16,-14 26,-18 10,-4 21,-6 34,-6 13,0 24,2 34,5 9,4 17,10 23,17 6,7 11,15 14,24 2,10 4,20 4,32l0 7 0 0zm-44 -13c1,-13 -2,-23 -7,-30 -6,-7 -14,-11 -25,-11 -6,0 -11,1 -15,4 -5,2 -8,5 -11,8 -3,4 -5,8 -6,13 -2,5 -3,10 -3,16l67 0 0 0zm149 -140c1,-2 2,-3 3,-4 1,-1 3,-2 5,-2 1,-1 4,-1 6,-1 3,0 6,-1 10,-1 6,0 10,1 13,1 3,1 6,1 7,2 1,1 2,2 2,3 0,2 -1,3 -2,4l-34 41c-1,2 -2,3 -3,3 -1,1 -2,2 -4,2 -1,1 -3,1 -6,1 -2,1 -5,1 -8,1 -4,0 -8,0 -10,-1 -3,0 -4,-1 -5,-2 -1,0 -1,-1 -1,-2 0,-2 0,-3 2,-5l25 -40 0 0z"/>
   <path fill="#0B5BAE" fill-rule="nonzero" d="M2334 871l-19 56c-1,3 -4,5 -9,7 -5,1 -12,2 -21,2 -5,0 -9,0 -11,-1 -3,0 -5,-1 -7,-2 -1,-1 -2,-2 -2,-4 0,-1 0,-3 1,-5l21 -53c-1,-1 -3,-2 -4,-3 -1,-2 -2,-3 -3,-5l-55 -146c-1,-5 -2,-8 -2,-10 0,-2 1,-4 2,-5 2,-1 4,-2 7,-3 4,0 8,0 14,0 5,0 9,0 12,0 3,0 5,0 7,1 2,1 3,2 4,4 1,1 1,3 2,6l38 106 0 0 35 -108c0,-3 1,-5 2,-6 1,-1 3,-2 6,-3 3,0 7,0 14,0 5,0 9,0 12,0 4,1 6,2 8,3 1,1 2,3 2,5 0,2 0,5 -1,8l-53 156 0 0zm-738 -150c0,4 0,7 0,10 -1,3 -1,5 -1,6 -1,2 -1,3 -2,4 -1,0 -2,1 -3,1 -1,0 -2,-1 -3,-1 -2,0 -3,-1 -4,-1 -2,-1 -4,-1 -5,-2 -2,0 -4,0 -6,0 -3,0 -5,0 -8,1 -2,1 -5,3 -7,5 -3,2 -6,5 -9,8 -3,4 -6,8 -9,14l0 99c0,1 -1,2 -1,3 -1,1 -2,2 -4,2 -2,1 -4,1 -7,2 -3,0 -6,0 -11,0 -4,0 -8,0 -11,0 -2,-1 -5,-1 -6,-2 -2,0 -3,-1 -4,-2 -1,-1 -1,-2 -1,-3l0 -159c0,-1 0,-2 1,-3 0,-1 1,-2 3,-3 1,0 3,-1 6,-1 2,0 5,0 9,0 4,0 7,0 10,0 2,0 4,1 5,1 2,1 3,2 3,3 1,1 1,2 1,3l0 20c4,-6 8,-11 12,-15 4,-4 7,-7 10,-9 4,-3 7,-4 10,-5 4,-1 7,-1 10,-1 2,0 4,0 5,0 2,0 4,0 6,1 2,0 4,1 5,1 1,1 2,1 3,2 1,0 1,1 2,2 0,1 0,2 0,3 1,1 1,3 1,5 0,3 0,6 0,11l0 0zm139 132c0,3 0,6 0,8 -1,3 -1,5 -2,6 0,2 -1,3 -2,3 -1,1 -2,1 -3,1l-104 0c-4,0 -6,-1 -8,-3 -2,-2 -2,-6 -2,-11l0 -8c0,-2 0,-4 0,-6 0,-2 0,-3 1,-5 0,-1 1,-3 2,-5 1,-1 2,-3 4,-5l59 -92 -56 0c-3,0 -4,-2 -6,-5 -1,-2 -2,-7 -2,-13 0,-4 0,-7 1,-9 0,-2 0,-4 1,-5 1,-2 1,-3 2,-3 1,-1 2,-1 4,-1l97 0c2,0 3,0 4,0 1,1 2,1 3,2 1,1 2,2 2,4 0,2 1,4 1,6l0 9c0,2 -1,5 -1,6 0,2 0,4 -1,6 0,1 -1,3 -2,5 -1,1 -2,3 -3,5l-59 92 63 0c1,0 2,0 3,1 1,0 1,1 2,2 1,2 1,3 2,6 0,2 0,5 0,9l0 0zm174 -72c0,5 -1,9 -3,12 -3,2 -6,4 -11,4l-96 0c0,7 0,13 2,18 2,6 4,10 8,14 3,4 8,7 13,9 6,2 12,3 20,3 8,0 15,0 21,-2 6,-1 11,-2 15,-3 5,-2 8,-3 11,-4 3,-1 5,-2 7,-2 1,0 2,0 3,1 0,0 1,1 1,2 1,1 1,3 1,5 1,2 1,4 1,7 0,3 0,5 0,7 -1,2 -1,3 -1,5 0,1 -1,2 -1,3 -1,1 -1,2 -2,2 -1,1 -3,2 -6,4 -4,1 -8,3 -13,4 -6,1 -12,3 -19,4 -7,1 -14,1 -22,1 -14,0 -27,-2 -37,-5 -11,-4 -20,-9 -27,-17 -7,-7 -12,-16 -16,-27 -3,-11 -5,-24 -5,-39 0,-14 2,-27 5,-38 4,-12 9,-21 16,-29 8,-8 16,-14 26,-18 10,-4 21,-6 34,-6 13,0 25,2 34,5 10,4 17,10 24,17 6,7 10,15 13,24 3,10 4,20 4,32l0 7 0 0zm-43 -13c0,-13 -2,-23 -8,-30 -5,-7 -14,-11 -25,-11 -6,0 -11,1 -15,4 -4,2 -8,5 -10,8 -3,4 -5,8 -7,13 -1,5 -2,10 -2,16l67 0 0 0zm201 72c0,3 0,5 -1,7 0,2 0,4 0,6 -1,1 -1,2 -1,3 -1,1 -2,2 -3,3 -2,2 -4,3 -8,5 -3,2 -7,4 -11,6 -5,1 -10,3 -15,3 -5,1 -10,2 -16,2 -12,0 -23,-2 -32,-6 -10,-4 -18,-9 -24,-17 -6,-7 -11,-16 -15,-27 -3,-11 -4,-23 -4,-37 0,-16 2,-29 5,-41 4,-12 10,-21 17,-29 7,-7 16,-13 26,-17 9,-3 20,-5 32,-5 4,0 9,0 14,1 4,1 8,2 12,3 4,2 8,3 11,5 3,2 6,4 7,5 1,1 2,2 3,3 0,1 1,2 1,4 0,1 0,3 1,5 0,2 0,4 0,7 0,7 -1,12 -2,15 -1,3 -3,4 -5,4 -2,0 -4,-1 -6,-2 -2,-2 -5,-4 -8,-6 -3,-2 -7,-4 -11,-5 -4,-2 -9,-3 -15,-3 -12,0 -21,5 -27,14 -6,9 -9,22 -9,39 0,9 0,16 2,23 1,6 4,12 7,16 3,5 7,8 11,10 5,2 10,3 16,3 6,0 12,-1 16,-2 5,-2 8,-4 12,-7 3,-2 6,-4 8,-6 2,-2 4,-2 6,-2 1,0 2,0 3,0 0,1 1,2 1,4 1,1 1,3 1,6 0,2 1,6 1,10zm143 13c0,3 0,6 0,8 0,3 -1,5 -2,6 0,2 -1,3 -2,3 -1,1 -2,1 -3,1l-104 0c-3,0 -6,-1 -8,-3 -1,-2 -2,-6 -2,-11l0 -8c0,-2 0,-4 0,-6 0,-2 1,-3 1,-5 1,-1 1,-3 2,-5 1,-1 2,-3 4,-5l59 -92 -56 0c-2,0 -4,-2 -5,-5 -2,-2 -2,-7 -2,-13 0,-4 0,-7 0,-9 0,-2 1,-4 1,-5 1,-2 2,-3 3,-3 1,-1 2,-1 3,-1l97 0c2,0 3,0 5,0 1,1 2,1 3,2 0,1 1,2 1,4 1,2 1,4 1,6l0 9c0,2 0,5 0,6 -1,2 -1,4 -1,6 -1,1 -2,3 -3,5 0,1 -1,3 -3,5l-59 92 63 0c1,0 2,0 3,1 1,0 2,1 2,2 1,2 2,3 2,6 0,2 0,5 0,9l0 0z"/>
  </g>
 </g>
</svg>
