<?xml version="1.0" standalone="no"?>
<!DOCTYPE svg PUBLIC "-//W3C//DTD SVG 20010904//EN"
 "http://www.w3.org/TR/2001/REC-SVG-20010904/DTD/svg10.dtd">
<svg version="1.0" xmlns="http://www.w3.org/2000/svg"
 width="940.000000pt" height="940.000000pt" viewBox="0 0 940.000000 940.000000"
 preserveAspectRatio="xMidYMid meet">
<metadata>
Created by potrace 1.11, written by Peter Selinger 2001-2013
</metadata>
<g transform="translate(0.000000,940.000000) scale(0.100000,-0.100000)"
fill="#000000" stroke="none">
<path d="M5907 9364 c-1 -1 -57 -5 -124 -8 -106 -5 -185 -13 -308 -31 -27 -4
-88 -16 -154 -29 -57 -12 -186 -48 -257 -71 -42 -14 -81 -25 -85 -25 -5 0 -28
-8 -52 -19 -47 -21 -109 -46 -117 -46 -18 -2 -335 -158 -338 -167 -2 -4 -8 -8
-14 -8 -20 0 -203 -115 -239 -150 -45 -44 -79 -93 -79 -114 0 -9 -4 -16 -8
-16 -15 0 -22 -148 -9 -196 18 -70 97 -170 162 -206 123 -68 235 -60 373 24
34 21 67 38 72 38 6 0 10 5 10 12 0 6 3 8 7 5 3 -4 11 -3 17 2 21 17 231 119
311 151 133 53 296 108 340 115 6 1 12 3 15 4 3 1 16 4 30 7 14 2 57 11 95 19
114 23 181 28 345 29 139 0 235 -6 296 -18 12 -2 37 -7 55 -10 43 -7 57 -10
189 -41 51 -12 189 -58 270 -91 105 -41 353 -164 358 -176 2 -4 8 -8 13 -8 5
0 53 -27 106 -61 129 -81 163 -94 248 -93 81 2 115 6 115 14 0 4 7 7 15 7 25
0 108 63 141 106 44 59 66 128 66 201 0 68 -4 88 -33 153 -23 52 -111 143
-138 143 -5 0 -11 4 -13 8 -6 15 -261 165 -398 233 -203 102 -494 211 -625
235 -16 3 -32 7 -36 9 -4 3 -24 7 -44 11 -21 3 -47 8 -59 10 -65 14 -138 24
-146 19 -5 -3 -11 -1 -15 5 -3 5 -16 9 -28 9 -12 -1 -65 2 -117 6 -100 7 -210
12 -213 9z"/>
<path d="M5737 8243 c-3 -2 -28 -6 -56 -8 -29 -2 -60 -6 -69 -9 -9 -3 -33 -8
-52 -11 -128 -21 -361 -106 -541 -195 -145 -73 -194 -103 -237 -149 -29 -31
-65 -85 -61 -93 0 -2 -6 -16 -14 -32 -25 -47 -17 -189 13 -249 52 -105 127
-165 235 -190 79 -18 161 -2 253 49 169 95 349 169 461 190 7 1 36 8 65 15 30
8 108 13 191 13 155 -1 263 -22 428 -85 81 -32 228 -105 277 -139 14 -9 56
-32 94 -50 56 -26 80 -32 135 -32 36 1 73 2 81 4 32 8 126 56 145 75 52 51 84
95 89 123 1 3 5 10 8 16 7 10 20 91 20 119 1 66 -31 155 -76 214 -27 36 -123
110 -143 111 -7 0 -13 3 -13 8 0 4 -27 20 -60 37 -33 16 -60 33 -60 37 0 4 -8
8 -19 8 -10 0 -24 7 -31 15 -7 8 -16 15 -21 15 -5 0 -34 12 -66 26 -53 25
-176 73 -198 79 -5 1 -17 5 -25 8 -18 7 -124 36 -160 43 -14 3 -34 8 -45 11
-11 4 -31 7 -45 9 -14 1 -50 6 -80 10 -62 8 -416 15 -423 7z"/>
<path d="M5880 7323 c0 -5 -12 -10 -27 -11 -43 -3 -124 -50 -167 -96 -45 -47
-82 -122 -90 -181 -3 -22 -8 -1003 -11 -2179 -3 -1177 -7 -2141 -9 -2143 -2
-2 -25 31 -51 74 -25 43 -64 105 -86 138 -21 33 -48 76 -59 95 -11 19 -28 47
-38 61 -26 40 -85 136 -102 167 -15 26 -65 105 -115 182 -26 41 -191 305 -208
335 -7 11 -26 40 -43 65 -16 25 -33 52 -37 60 -4 8 -15 27 -25 43 -303 481
-662 1060 -662 1068 0 5 -4 9 -9 9 -5 0 -11 8 -15 18 -3 9 -14 29 -23 44 -101
155 -110 173 -117 243 -6 69 -53 186 -95 238 -41 51 -104 104 -153 129 -48 24
-69 32 -118 46 -35 9 -181 10 -212 1 -18 -6 -40 -12 -49 -14 -17 -3 -100 -46
-133 -68 -77 -51 -139 -145 -174 -267 -9 -32 -6 -208 4 -231 31 -70 60 -125
71 -137 7 -8 17 -22 23 -31 10 -20 16 -158 7 -167 -3 -3 -2 -17 3 -30 5 -13 5
-26 1 -29 -5 -3 -5 -20 -1 -39 4 -19 4 -40 -1 -47 -4 -7 -5 -17 -2 -22 7 -11
7 -146 0 -153 -3 -4 -2 -17 3 -30 5 -13 5 -26 1 -29 -5 -3 -5 -20 -1 -39 4
-19 4 -40 0 -46 -4 -7 -4 -25 0 -40 4 -15 5 -43 1 -61 -4 -19 -4 -53 -1 -76 4
-23 3 -44 -1 -45 -4 -2 -4 -23 0 -48 4 -25 4 -58 1 -75 -3 -16 -3 -49 1 -72 3
-23 2 -44 -2 -45 -4 -2 -4 -23 0 -48 4 -25 4 -59 1 -76 -4 -16 -4 -39 0 -50 4
-10 4 -29 -1 -41 -5 -12 -4 -25 0 -27 5 -3 6 -20 2 -38 -4 -18 -4 -52 -1 -75
4 -23 3 -44 -1 -45 -4 -2 -4 -23 0 -48 4 -25 4 -58 1 -75 -3 -16 -3 -49 1 -72
3 -23 2 -44 -2 -45 -4 -2 -4 -23 0 -48 4 -25 4 -59 1 -76 -4 -16 -4 -39 0 -50
4 -10 4 -29 -1 -41 -5 -12 -4 -25 0 -27 5 -3 6 -20 2 -38 -4 -18 -4 -52 -1
-75 4 -23 3 -44 -1 -45 -4 -2 -4 -23 0 -48 4 -25 4 -58 1 -75 -3 -16 -3 -49 1
-72 3 -23 2 -44 -2 -45 -4 -2 -4 -23 0 -48 4 -25 4 -59 1 -76 -4 -16 -4 -39 0
-50 4 -10 4 -29 -1 -41 -5 -12 -4 -25 0 -27 5 -3 6 -20 2 -38 -4 -18 -4 -52
-1 -75 4 -23 3 -44 -1 -45 -4 -2 -4 -23 0 -48 4 -25 4 -60 0 -78 -4 -18 -3
-34 1 -37 4 -3 4 -21 0 -40 -4 -19 -5 -35 -1 -35 3 0 1 -4 -4 -8 -22 -15 -75
-91 -75 -106 0 -9 -4 -16 -8 -16 -14 0 -35 -101 -38 -181 -4 -123 38 -233 123
-324 62 -66 142 -121 188 -130 11 -2 20 -4 20 -5 0 -7 66 -14 140 -14 70 -1
104 5 155 23 139 50 250 173 295 325 13 46 15 184 3 226 -3 8 -8 29 -13 45
-13 48 -34 84 -92 153 l-23 27 6 1015 c2 558 5 1022 4 1030 -2 91 -1 121 4
129 3 5 2 11 -4 13 -5 1 -6 9 -2 15 5 9 72 -89 188 -274 98 -158 182 -294 186
-304 4 -9 11 -20 17 -24 6 -3 20 -23 31 -43 12 -20 29 -50 40 -67 11 -16 27
-43 36 -60 9 -16 29 -48 44 -70 15 -22 59 -92 98 -155 39 -63 76 -120 82 -127
5 -7 10 -14 10 -17 0 -3 28 -49 61 -103 97 -154 118 -187 129 -200 5 -7 10
-14 10 -17 0 -3 54 -91 120 -196 66 -105 120 -195 120 -199 0 -5 7 -14 16 -22
8 -7 25 -30 37 -52 22 -41 30 -53 58 -97 29 -44 194 -309 204 -327 6 -10 27
-44 48 -77 64 -99 77 -127 67 -147 -7 -12 -7 -20 0 -24 6 -4 8 -10 5 -14 -2
-5 2 -34 10 -64 39 -149 147 -265 299 -322 53 -19 211 -26 274 -12 62 14 148
65 205 122 53 53 64 69 107 155 46 91 50 237 10 345 -20 53 -60 121 -82 135
-4 3 -5 1155 -3 2560 l4 2555 -29 63 c-53 115 -162 194 -285 208 -33 3 -63 8
-67 11 -5 2 -8 0 -8 -4z m-2243 -1794 c58 -30 102 -74 133 -134 34 -66 35
-180 2 -246 -110 -223 -419 -220 -526 5 -41 86 -24 223 37 296 86 103 240 138
354 79z m-13 -3618 c40 -20 77 -51 115 -96 45 -55 61 -178 34 -258 -84 -243
-421 -261 -534 -29 -24 48 -35 168 -19 202 34 71 44 89 63 111 33 37 84 70
130 84 59 18 157 11 211 -14z m2408 -20 c60 -29 110 -78 140 -139 33 -67 32
-177 -1 -246 -29 -59 -79 -108 -141 -139 -66 -32 -179 -31 -246 3 -96 50 -155
139 -160 245 -7 139 73 250 216 298 38 13 147 0 192 -22z"/>
<path d="M4586 6883 c-2 -2 -48 -6 -102 -9 -120 -7 -179 -12 -179 -14 0 -1
-16 -3 -35 -5 -19 -1 -51 -5 -70 -8 -19 -3 -53 -8 -75 -12 -67 -10 -235 -45
-318 -66 -75 -19 -329 -100 -372 -118 -11 -5 -45 -19 -75 -31 -52 -21 -332
-158 -375 -183 -106 -63 -167 -102 -265 -170 -63 -44 -117 -83 -120 -87 -3 -3
-27 -24 -55 -45 -27 -22 -55 -44 -61 -50 -6 -5 -42 -37 -79 -70 -72 -63 -79
-70 -191 -186 -98 -102 -157 -172 -254 -301 -27 -37 -50 -71 -50 -77 0 -5 -4
-11 -9 -13 -13 -4 -96 -133 -171 -263 -146 -253 -265 -524 -346 -790 -15 -49
-29 -94 -30 -100 -1 -5 -9 -41 -19 -80 -34 -143 -48 -224 -59 -350 -2 -16 -6
-57 -11 -90 -14 -108 -5 -425 19 -615 3 -24 8 -65 11 -90 3 -25 7 -54 9 -65 2
-11 7 -40 11 -65 8 -54 16 -101 19 -115 1 -5 6 -26 10 -45 28 -128 49 -210 61
-243 8 -20 13 -37 10 -37 -8 0 95 -289 142 -400 48 -113 114 -252 123 -260 3
-3 12 -18 20 -35 8 -16 32 -58 52 -93 21 -34 38 -66 38 -71 0 -5 3 -11 8 -13
4 -2 32 -39 62 -83 29 -44 71 -102 92 -130 21 -27 44 -57 51 -66 93 -122 311
-348 449 -465 53 -45 215 -171 253 -196 22 -15 66 -45 97 -68 32 -22 61 -40
66 -40 5 0 17 -9 27 -20 10 -11 21 -17 25 -15 4 3 13 -2 20 -10 7 -8 19 -15
26 -15 8 0 14 -3 14 -7 0 -5 10 -13 23 -19 12 -6 92 -47 177 -91 85 -44 200
-97 255 -118 55 -21 104 -42 110 -47 5 -4 19 -8 30 -8 12 0 25 -3 29 -8 4 -4
12 -8 17 -8 5 -1 11 -3 14 -4 3 -1 8 -3 13 -4 4 -1 39 -11 77 -23 39 -12 108
-30 155 -42 97 -23 124 -29 230 -47 19 -3 44 -8 55 -10 65 -11 228 -26 312
-28 29 0 53 -4 53 -7 0 -3 22 -3 50 1 27 3 57 5 67 3 52 -10 353 4 483 22 19
3 53 7 75 10 38 4 67 9 125 20 86 17 118 24 155 30 17 3 38 8 47 11 9 3 25 6
35 9 10 2 52 13 93 25 41 11 82 23 90 25 8 2 47 15 87 28 39 14 74 23 77 19 3
-3 6 0 6 6 0 7 6 12 14 12 7 0 38 11 67 23 64 28 92 40 99 42 7 1 70 30 150
69 36 17 67 34 68 39 2 4 9 7 15 7 15 0 208 113 297 175 138 95 185 129 201
147 9 10 19 18 22 18 19 0 280 246 398 376 77 85 221 271 285 369 21 33 42 62
47 63 4 2 7 8 7 13 0 5 12 28 27 52 37 57 70 114 93 162 11 22 24 47 30 55 9
14 69 141 117 250 31 69 88 219 92 242 1 7 9 30 37 103 4 11 8 26 10 33 1 7
10 36 18 65 20 62 65 258 72 307 2 19 8 58 13 85 17 90 29 194 36 315 6 102 6
365 -1 435 -3 28 -7 73 -9 100 -6 73 -14 134 -31 240 -3 17 -7 41 -9 55 -3 14
-13 66 -25 115 -11 50 -23 101 -26 115 -12 56 -99 321 -132 405 -36 92 -160
339 -217 435 -58 96 -225 351 -236 360 -4 3 -30 37 -60 75 -29 39 -61 79 -70
90 -10 11 -37 43 -61 70 -23 28 -81 88 -128 135 -177 177 -236 213 -353 212
-195 -1 -351 -144 -349 -322 1 -36 3 -72 5 -80 16 -62 24 -80 50 -120 16 -25
48 -61 71 -80 67 -58 169 -161 227 -230 30 -36 57 -66 62 -68 4 -2 7 -8 7 -14
0 -6 12 -25 28 -43 90 -109 196 -280 299 -484 72 -143 129 -273 137 -314 2 -6
8 -25 14 -40 7 -15 14 -40 18 -55 3 -15 10 -38 15 -52 4 -14 11 -36 14 -50 2
-14 14 -68 25 -120 12 -52 23 -113 26 -135 3 -22 7 -51 10 -65 31 -187 24
-676 -11 -800 -3 -8 -7 -33 -10 -55 -6 -48 -6 -47 -37 -175 -22 -90 -69 -250
-88 -295 -5 -11 -19 -47 -31 -80 -13 -33 -36 -85 -51 -115 -16 -30 -28 -60
-28 -66 0 -7 -3 -14 -7 -16 -5 -1 -23 -31 -40 -65 -79 -149 -241 -385 -365
-528 -78 -91 -242 -250 -338 -329 -52 -42 -106 -86 -118 -97 -13 -10 -28 -19
-33 -19 -5 0 -9 -4 -9 -10 0 -5 -7 -10 -15 -10 -8 0 -15 -3 -15 -8 0 -4 -9
-12 -20 -17 -11 -6 -58 -34 -105 -63 -46 -29 -86 -52 -89 -50 -2 2 -12 -4 -22
-13 -21 -17 -195 -98 -259 -120 -22 -8 -43 -18 -46 -22 -3 -5 -8 -8 -10 -6 -2
1 -33 -7 -69 -18 -127 -39 -205 -62 -235 -67 -16 -3 -73 -15 -125 -25 -52 -11
-117 -22 -146 -26 -28 -3 -62 -8 -75 -10 -128 -25 -585 -25 -718 0 -9 1 -36 6
-61 10 -170 26 -434 94 -525 135 -11 5 -54 23 -95 40 -92 38 -211 101 -350
186 -124 76 -138 85 -159 101 -9 7 -45 33 -81 60 -36 26 -67 50 -70 53 -3 3
-18 16 -35 29 -46 35 -174 152 -216 196 -21 22 -57 61 -81 86 -98 104 -171
200 -291 384 -79 122 -235 458 -264 570 -1 6 -14 48 -28 95 -14 47 -35 126
-46 175 -28 123 -29 126 -33 160 -3 17 -7 42 -10 55 -3 14 -8 52 -11 84 -3 32
-7 62 -9 65 -7 11 -18 232 -19 351 0 104 9 253 18 297 43 212 67 299 120 448
77 215 180 425 309 625 58 91 77 118 102 144 6 6 13 16 15 22 5 13 64 86 97
120 12 13 22 25 22 28 0 15 180 198 281 287 41 35 76 66 79 69 3 3 23 18 45
35 22 16 49 37 59 47 11 10 28 20 38 24 10 3 18 10 18 15 0 5 7 9 15 9 8 0 15
3 15 8 0 4 9 12 19 17 10 6 50 29 87 51 210 126 480 240 684 289 237 56 342
74 550 91 104 9 521 11 526 2 6 -9 122 31 164 57 46 29 97 82 112 117 7 15 16
28 19 28 3 0 6 6 6 13 1 6 5 26 11 42 5 17 8 42 8 58 -1 15 2 27 7 27 4 0 6 4
3 9 -3 5 -8 25 -11 46 -10 82 -74 181 -150 232 -39 26 -99 46 -155 50 -58 5
-460 10 -464 6z"/>
</g>
</svg>
