<?xml version="1.0" encoding="UTF-8"?>
<svg xmlns="http://www.w3.org/2000/svg" xml:space="preserve" width="800px" height="240px" version="1.1" shape-rendering="geometricPrecision" text-rendering="geometricPrecision" image-rendering="optimizeQuality" fill-rule="evenodd" clip-rule="evenodd"
viewBox="0 0 8000 2400"
 xmlns:xlink="http://www.w3.org/1999/xlink">
 <g id="Warstwa_x0020_1">
  <path fill="#0D83D0" d="M239 42l3374 0 0 251 -3265 0 0 1814 2745 0 0 251 -2854 0c-76,0 -139,-63 -139,-139l0 -2038c0,-76 63,-139 139,-139zm4053 810c197,0 357,160 357,357 0,198 -160,357 -357,357 -198,0 -357,-159 -357,-357 0,-197 159,-357 357,-357zm2206 856l185 0 0 -967 -186 0 1 967zm-5243 -23l156 1 30 -4 0 -961 -30 -2 -156 0 0 966zm3329 -1432c389,65 525,185 574,589l193 2c29,-476 -329,-756 -776,-793l9 202zm-4053 1175l-3 209c109,35 310,126 458,19 126,-91 127,-332 69,-433 -84,-146 -329,-115 -359,-208 -33,-101 53,-137 141,-133 73,4 156,41 205,68l1 -200c-141,-59 -347,-81 -445,24 -104,110 -97,340 -13,425 139,141 343,66 325,234 -9,88 -103,102 -190,83 -85,-18 -130,-53 -189,-88zm6984 280c-30,-98 -236,-429 -242,-487 -6,-51 225,-415 229,-480l-189 0 -157 303c-54,-52 -106,-242 -162,-303l-184 0c8,73 240,436 228,485 -5,19 -223,448 -242,481l194 1c32,-63 126,-284 166,-323 39,53 140,261 167,323l192 0zm-5245 -89l2 -470 -290 0 0 167 111 0 2 186c-111,58 -223,1 -269,-71 -79,-122 -94,-494 124,-543 131,-30 215,38 293,82l2 -200c-114,-55 -168,-73 -316,-67 -162,36 -236,94 -296,224 -58,128 -67,315 -31,460 36,140 118,252 239,296 75,26 162,26 243,10 83,-18 132,-59 186,-74zm165 70l176 -4 2 -654 198 498c80,195 14,155 270,160l0 -970 -176 0 -1 654c-35,-99 -90,-219 -131,-323 -32,-83 -91,-262 -132,-331l-206 0 0 970zm3703 -671l0 689 176 0 -4 -966 -228 0c-25,37 -130,412 -171,511l-166 -511 -229 0c-11,46 -7,860 -4,967l176 -4 1 -678c9,10 0,-5 11,17l75 233c26,81 59,166 78,246l120 -2 165 -502zm-2473 31l433 -483 639 164 171 638 -430 486 -627 -150 -186 -655zm-219 -21l247 843 850 210 594 -678 -244 -839 -864 -226 -583 690zm545 1117c-389,-65 -525,-185 -574,-589l-193 -2c-29,476 329,756 776,793l-9 -202zm970 -38l2691 0 0 -1814 -2171 0 0 -251 2280 0c76,0 139,63 139,139l0 2038c0,76 -63,139 -139,139l-2800 0 0 -251z"/>
 </g>
</svg>
